<svg xmlns="http://www.w3.org/2000/svg" version="1.1" xmlns:xlink="http://www.w3.org/1999/xlink" xmlns:svgjs="http://svgjs.dev/svgjs" width="1440" height="560" preserveAspectRatio="none" viewBox="0 0 1440 560"><g mask="url(&quot;#SvgjsMask1001&quot;)" fill="none"><path d="M598.91 372.37L631.87 372.37L631.87 405.33L598.91 405.33z" fill="#e73635"></path><path d="M37.41 69.94a41.17 41.17 0 1 0-31.76 75.97z" stroke="#e73635"></path><path d="M9.11 50.27L38.5 50.27L38.5 79.66L9.11 79.66z" fill="#d3b714"></path><path d="M1260.34 247.52L1303.42 247.52L1303.42 269.97L1260.34 269.97z" fill="#d3b714"></path><path d="M732.43 154.68a1.24 1.24 0 1 0-2.46-0.27z" stroke="#e73635"></path><path d="M57.63 182.46 a13.13 13.13 0 1 0 26.26 0 a13.13 13.13 0 1 0 -26.26 0z" stroke="#e73635"></path><path d="M1374.56 364.39 a18.63 18.63 0 1 0 37.26 0 a18.63 18.63 0 1 0 -37.26 0z" stroke="#037b0b"></path><path d="M336.27 384.38a1.61 1.61 0 1 0-1.96 2.55z" stroke="#037b0b"></path><path d="M436.62 293.24L473.97 293.24L473.97 330.59L436.62 330.59z" stroke="#e73635"></path><path d="M934.99 501.38a11.19 11.19 0 1 0 14.44-17.1z" stroke="#e73635"></path><path d="M236.55 67.46 a4.4 4.4 0 1 0 8.8 0 a4.4 4.4 0 1 0 -8.8 0z" stroke="#d3b714"></path><path d="M73.95 341.2L102.35 341.2L102.35 355.16L73.95 355.16z" stroke="#037b0b"></path><path d="M1295.4 155.72a44.95 44.95 0 1 0 15.12 88.62z" stroke="#d3b714"></path><path d="M1222.9 506.81 a49.26 49.26 0 1 0 98.52 0 a49.26 49.26 0 1 0 -98.52 0z" stroke="#d3b714"></path><path d="M509.07 501.31L561.6 501.31L561.6 550.74L509.07 550.74z" stroke="#d3b714"></path><path d="M931.89 313.69 a49.6 49.6 0 1 0 99.2 0 a49.6 49.6 0 1 0 -99.2 0z" stroke="#d3b714"></path><path d="M208.29 295.94a38.21 38.21 0 1 0 76.4 1.7z" stroke="#d3b714"></path><path d="M98.37 64.17a13.35 13.35 0 1 0 19.5-18.24z" stroke="#d3b714"></path><path d="M1014.52 358.78L1027.68 358.78L1027.68 410.73L1014.52 410.73z" stroke="#037b0b"></path><path d="M246.21 126.55L289.78 126.55L289.78 170.12L246.21 170.12z" stroke="#037b0b"></path><path d="M1010.91 94.27a28.81 28.81 0 1 0 9.44-56.84z" stroke="#d3b714"></path><path d="M1372.29 326.44a16.56 16.56 0 1 0-12.59-30.64z" stroke="#e73635"></path><path d="M692.45 366.01L739.89 366.01L739.89 366.51L692.45 366.51z" stroke="#037b0b"></path><path d="M276.31 194.11L303.91 194.11L303.91 241.34L276.31 241.34z" stroke="#e73635"></path><path d="M1230.01 550.02L1271.51 550.02L1271.51 570.3L1230.01 570.3z" fill="#037b0b"></path><path d="M1288.74 175.19L1327.65 175.19L1327.65 214.1L1288.74 214.1z" stroke="#037b0b"></path><path d="M927.7 113.91L943.17 113.91L943.17 142.38L927.7 142.38z" fill="#037b0b"></path><path d="M981.01 85.16L1036.55 85.16L1036.55 117.87L981.01 117.87z" stroke="#e73635"></path><path d="M267.39 171.7L319.91 171.7L319.91 198.65L267.39 198.65z" fill="#037b0b"></path><path d="M671.37 16.45 a53.42 53.42 0 1 0 106.84 0 a53.42 53.42 0 1 0 -106.84 0z" stroke="#d3b714"></path><path d="M883.28 256.51L920.35 256.51L920.35 293.58L883.28 293.58z" fill="#037b0b"></path><path d="M1341.39 136.12a5.58 5.58 0 1 0-0.64 11.14z" fill="#037b0b"></path><path d="M1050.34 553.76L1091.91 553.76L1091.91 572.06L1050.34 572.06z" stroke="#d3b714"></path></g><defs><mask id="SvgjsMask1001"><rect width="1440" height="560" fill="#ffffff"></rect></mask></defs></svg>